<svg viewBox="0 0 32 32" xmlns="http://www.w3.org/2000/svg">
  <!-- Background -->
  <rect width="32" height="32" fill="#1e1e1e" rx="4"/>
  
  <!-- Layer 1 (Left) - 3 neurons -->
  <circle cx="7" cy="8" r="2" fill="#f97316"/>
  <circle cx="7" cy="16" r="2" fill="#f97316"/>
  <circle cx="7" cy="24" r="2" fill="#f97316"/>
  
  <!-- Layer 2 (Middle) - 2 neurons -->
  <circle cx="16" cy="12" r="2" fill="#f97316"/>
  <circle cx="16" cy="20" r="2" fill="#f97316"/>
  
  <!-- Layer 3 (Right) - 3 neurons -->
  <circle cx="25" cy="8" r="2" fill="#f97316"/>
  <circle cx="25" cy="16" r="2" fill="#f97316"/>
  <circle cx="25" cy="24" r="2" fill="#f97316"/>
  
  <!-- Connections Layer 1 to Layer 2 -->
  <line x1="9" y1="8" x2="14" y2="12" stroke="#f97316" stroke-width="0.8" opacity="0.7"/>
  <line x1="9" y1="8" x2="14" y2="20" stroke="#f97316" stroke-width="0.8" opacity="0.7"/>
  <line x1="9" y1="16" x2="14" y2="12" stroke="#f97316" stroke-width="0.8" opacity="0.7"/>
  <line x1="9" y1="16" x2="14" y2="20" stroke="#f97316" stroke-width="0.8" opacity="0.7"/>
  <line x1="9" y1="24" x2="14" y2="12" stroke="#f97316" stroke-width="0.8" opacity="0.7"/>
  <line x1="9" y1="24" x2="14" y2="20" stroke="#f97316" stroke-width="0.8" opacity="0.7"/>
  
  <!-- Connections Layer 2 to Layer 3 -->
  <line x1="18" y1="12" x2="23" y2="8" stroke="#f97316" stroke-width="0.8" opacity="0.7"/>
  <line x1="18" y1="12" x2="23" y2="16" stroke="#f97316" stroke-width="0.8" opacity="0.7"/>
  <line x1="18" y1="12" x2="23" y2="24" stroke="#f97316" stroke-width="0.8" opacity="0.7"/>
  <line x1="18" y1="20" x2="23" y2="8" stroke="#f97316" stroke-width="0.8" opacity="0.7"/>
  <line x1="18" y1="20" x2="23" y2="16" stroke="#f97316" stroke-width="0.8" opacity="0.7"/>
  <line x1="18" y1="20" x2="23" y2="24" stroke="#f97316" stroke-width="0.8" opacity="0.7"/>
</svg>